<?xml version="1.0" encoding="UTF-8" standalone="no"?>
<svg width="94px" height="43px" viewBox="0 0 94 43" version="1.1" xmlns="http://www.w3.org/2000/svg" xmlns:xlink="http://www.w3.org/1999/xlink">
    <!-- Generator: Sketch 3.8.3 (29802) - http://www.bohemiancoding.com/sketch -->
    <title>Page 1</title>
    <desc>Created with Sketch.</desc>
    <defs>
        <polygon id="path-1" points="22.3757261 0.588509804 0.790446847 0.588509804 0.790446847 31.6232961 22.3757261 31.6232961 22.3757261 0.588509804"></polygon>
        <polygon id="path-3" points="0 42.1568627 93.5435495 42.1568627 93.5435495 0.588509804 0 0.588509804"></polygon>
    </defs>
    <g id="Page-1" stroke="none" stroke-width="1" fill="none" fill-rule="evenodd">
        <g id="InwallLanding" transform="translate(-672.000000, -4068.000000)">
            <g id="Page-1" transform="translate(672.000000, 4068.000000)">
                <polygon id="Fill-1" fill="#3BBBED" points="0 38.336102 18.8287928 42.4118275 6.486 31.8785137"></polygon>
                <polygon id="Fill-2" fill="#3BBBED" points="23.222573 15.2155078 30.2903568 38.3360176 30.2903568 22.8501157 30.2903568 8.17868431"></polygon>
                <g id="Group-18" transform="translate(0.000000, 0.254880)">
                    <g id="Group-5" transform="translate(0.846847, 0.000000)">
                        <mask id="mask-2" fill="white">
                            <use xlink:href="#path-1"></use>
                        </mask>
                        <g id="Clip-4"></g>
                        <polygon id="Fill-3" fill="#DF214E" mask="url(#mask-2)" points="17.9822847 0.588256863 2.4274018 18.5201 0.790446847 27.4860216 5.63949189 31.6232961 22.3757261 14.9603745"></polygon>
                    </g>
                    <g id="Group-8" transform="translate(5.927928, 14.333333)" fill="#351D43">
                        <polygon id="Fill-6" points="0.558326126 17.2903 12.9011189 27.8236137 24.3623441 23.7478882 17.2945604 0.627378431"></polygon>
                    </g>
                    <path d="M44.4238919,18.4846882 L40.9382703,22.5443941 L39.8695495,22.0680216 L42.709027,17.9526686 L44.4238919,18.4846882 Z M46.7298559,30.4100216 C46.6553333,29.8139235 46.4808829,29.2448059 46.2098919,28.7026686 C45.9380541,28.1622176 45.5823784,27.6816294 45.1411712,27.2609039 C44.7008108,26.8410216 44.1986306,26.5096686 43.638018,26.2676882 C43.0748649,26.0257078 42.4566667,25.9034529 41.7817297,25.9034529 C41.1254234,25.9034529 40.5021441,26.0257078 39.9118919,26.2676882 C39.3207928,26.5096686 38.8008288,26.8368059 38.3511532,27.2465706 C37.9006306,27.6580216 37.5314054,28.133551 37.2409369,28.674002 C36.9496216,29.2161392 36.776018,29.7945314 36.7201261,30.4100216 L46.7298559,30.4100216 Z M36.7201261,31.586198 C36.7014955,32.4074137 36.8183604,33.1544333 37.0724144,33.8255706 C37.3247748,34.497551 37.6846847,35.0717275 38.1546847,35.5472569 C38.622991,36.0236294 39.1810631,36.3912373 39.8272072,36.6534529 C40.4741982,36.9148255 41.172,37.0455118 41.9214595,37.0455118 C42.9342883,37.0455118 43.8336396,36.7740216 44.6212072,36.2327275 C45.4087748,35.6922765 46.0362883,34.9840412 46.5045946,34.1063353 L47.5733153,34.7218255 C46.9729009,35.8415118 46.1768649,36.7048843 45.1835135,37.3111 C44.1901622,37.9173157 43.0469189,38.2208451 41.7529369,38.2208451 C40.7968468,38.2208451 39.9305225,38.0378843 39.1522703,37.6744922 C38.3748649,37.3111 37.7092432,36.8212373 37.1562523,36.2049039 C36.6024144,35.5894137 36.1815315,34.8719039 35.8910631,34.0498451 C35.5997477,33.2286294 35.4549369,32.3610412 35.4549369,31.4470804 C35.4549369,30.5508255 35.6056757,29.6967275 35.9046126,28.8847863 C36.2043964,28.0728451 36.6312072,27.3587078 37.185045,26.7432176 C37.7363423,26.1268843 38.3977297,25.6378647 39.1666667,25.2736294 C39.9347568,24.9102373 40.7968468,24.7281196 41.7529369,24.7281196 C42.7276577,24.7281196 43.6041441,24.9102373 44.3823964,25.2736294 C45.1598018,25.6378647 45.8161081,26.1327863 46.3496216,26.7567078 C46.8848288,27.3831588 47.2921622,28.1107863 47.5733153,28.9404333 C47.8544685,29.7717667 47.995045,30.6536882 47.995045,31.586198 L36.7201261,31.586198 Z" id="Fill-9" fill="#1D1E1C"></path>
                    <polygon id="Fill-11" fill="#1D1E1C" points="56.4300631 35.6738961 61.041991 25.0073667 62.335973 25.0073667 56.4021171 38.6408961 50.442009 25.0073667 51.7351441 25.0073667"></polygon>
                    <path d="M71.444573,25.9030314 C70.675636,25.9030314 69.9592036,26.0531098 69.293582,26.3507373 C68.6279604,26.650051 68.0563387,27.0564431 67.5787171,27.5690706 C67.1010955,28.0825412 66.7259423,28.6803255 66.4541045,29.3607373 C66.1822667,30.0419922 66.0467712,30.7561294 66.0467712,31.5023059 C66.0467712,32.2307765 66.1822667,32.9297373 66.4541045,33.6017176 C66.7259423,34.273698 67.1044829,34.8655804 67.5922667,35.379051 C68.0800505,35.8933647 68.6516721,36.2989137 69.3088252,36.5973843 C69.9642847,36.8958549 70.675636,37.0450902 71.444573,37.0450902 C72.2321405,37.0450902 72.9722847,36.9042863 73.6658523,36.6243647 C74.358573,36.3444431 74.9589874,35.9540706 75.4654018,35.4498745 C75.9718162,34.9456784 76.3698342,34.3571686 76.6603027,33.6851882 C76.9507712,33.0132078 77.0964288,32.2864235 77.0964288,31.5023059 C77.0964288,30.7004824 76.9507712,29.9576784 76.6603027,29.2764235 C76.3698342,28.5951686 75.9718162,28.0032863 75.4654018,27.4990902 C74.9589874,26.9957373 74.3645009,26.6036784 73.6802486,26.3237569 C72.9951495,26.0438353 72.2499243,25.9030314 71.444573,25.9030314 M71.5292577,24.7285412 C72.4853477,24.7285412 73.379618,24.9005412 74.214609,25.2462275 C75.0487532,25.5910706 75.7694198,26.0615412 76.3791495,26.6593255 C76.9888793,27.2571098 77.4707351,27.9704039 77.8272577,28.8008941 C78.1837802,29.6322275 78.361618,30.5225804 78.361618,31.4744824 C78.361618,32.4263843 78.1837802,33.3175804 77.8272577,34.1480706 C77.4707351,34.9777176 76.9888793,35.6918549 76.3791495,36.2887961 C75.7694198,36.8865804 75.0487532,37.3578941 74.214609,37.7035804 C73.379618,38.0484235 72.4853477,38.2212667 71.5292577,38.2212667 C70.5917982,38.2212667 69.7161586,38.0425216 68.8997982,37.6884039 C68.0851315,37.3342863 67.3720865,36.8486392 66.7640505,36.2323059 C66.1543207,35.6176588 65.6707712,34.9035216 65.3150955,34.0924235 C64.9594198,33.2796392 64.781582,32.4171098 64.781582,31.5023059 C64.781582,30.5689529 64.9534919,29.6920902 65.3015459,28.8708745 C65.6479063,28.050502 66.1255279,27.3313059 66.7352577,26.7158157 C67.3449874,26.0994824 68.060573,25.6138353 68.8862486,25.2597176 C69.7110775,24.9056 70.5917982,24.7285412 71.5292577,24.7285412" id="Fill-13" fill="#1D1E1C"></path>
                    <mask id="mask-4" fill="white">
                        <use xlink:href="#path-3"></use>
                    </mask>
                    <g id="Clip-16"></g>
                    <polygon id="Fill-15" fill="#1D1E1C" mask="url(#mask-4)" points="82.8317838 37.9411765 84.096973 37.9411765 84.096973 14.8451176 82.8317838 14.8451176"></polygon>
                    <polygon id="Fill-17" fill="#1D1E1C" mask="url(#mask-4)" points="91.2661243 37.9411765 90.0009351 37.9411765 90.0009351 26.1827843 88.5672234 26.1827843 88.5672234 25.007451 90.0009351 25.007451 90.0009351 20.3887451 91.2661243 20.3887451 91.2661243 25.007451 93.5432955 25.007451 93.5432955 26.1827843 91.2661243 26.1827843"></polygon>
                </g>
            </g>
        </g>
    </g>
</svg>